<svg xmlns="http://www.w3.org/2000/svg" xmlns:xlink="http://www.w3.org/1999/xlink" version="1.0" id="Layer_1" x="0px" y="0px" viewBox="0 0 167.8 47.4" style="enable-background:new 0 0 167.8 47.4;" xml:space="preserve">
                                        <path class="svg-top" fill="#c28d69" d="M9.4,16.9C4.6,16.9,1,13.1,1,8.3v0c0-4.7,3.5-8.6,8.6-8.6c3.1,0,5,1,6.5,2.6L13.8,5   c-1.3-1.2-2.6-1.9-4.2-1.9c-2.8,0-4.8,2.3-4.8,5.2v0c0,2.8,1.9,5.2,4.8,5.2c1.9,0,3-0.8,4.3-1.9l2.3,2.3   C14.5,15.7,12.6,16.9,9.4,16.9"></path>
                                        <path class="svg-top" fill="#c28d69" d="M30.1,17.9c-4.4,0-7.1-2.5-7.1-7.4V1.1h3.6v9.4c0,2.7,1.3,4.1,3.5,4.1s3.5-1.3,3.5-4V1.1h3.6v9.4  C37.4,15.4,34.6,17.9,30.1,17.9"></path>
                                        <path class="svg-top" fill="#c28d69" d="M55.3,6.7c0-1.6-1.1-2.4-2.8-2.4h-3.6v4.8h3.7C54.3,9.1,55.3,8.2,55.3,6.7L55.3,6.7z M55.3,17.6  l-3.5-5.3h-2.8v5.3h-3.6V1.1h7.5c3.9,0,6.2,2.1,6.2,5.5v0c0,2.7-1.4,4.4-3.5,5.1l4,5.9H55.3z"></path>
                                        <path class="svg-top" fill="#c28d69" d="M76.5,6.7c0-1.6-1.1-2.4-2.8-2.4h-3.6v4.8h3.7C75.5,9.1,76.5,8.2,76.5,6.7L76.5,6.7z M76.5,17.6  l-3.5-5.3h-2.8v5.3h-3.6V1.1H74c3.9,0,6.2,2.1,6.2,5.5v0c0,2.7-1.4,4.4-3.5,5.1l4,5.9H76.5z"></path>
                                        <polygon class="svg-top" fill="#c28d69" points="87.7,17.6 87.7,1.1 100.1,1.1 100.1,4.3 91.3,4.3 91.3,7.7 99,7.7 99,10.9 91.3,10.9   91.3,14.4 100.2,14.4 100.2,17.6 "></polygon>
                                        <polygon class="svg-top" fill="#c28d69" points="119.2,17.6 111.2,7.1 111.2,17.6 107.6,17.6 107.6,1.1 111,1.1 118.7,11.3 118.7,1.1   122.3,1.1 122.3,17.6 "></polygon>
                                        <path class="svg-top" fill="#c28d69" transform="translate(128.570318, 1.046709)" d="M9.6,16.9c-4.8,0-8.4-3.8-8.4-8.5v0c0-4.7,3.5-8.6,8.6-8.6c3.1,0,5,1,6.5,2.6L13.9,5   c-1.3-1.2-2.6-1.9-4.2-1.9c-2.8,0-4.8,2.3-4.8,5.2v0c0,2.8,1.9,5.2,4.8,5.2c1.9,0,3-0.8,4.3-1.9l2.3,2.3   C14.6,15.7,12.7,16.9,9.6,16.9"></path>
                                        <polygon class="svg-top" fill="#c28d69" transform="translate(149.024327, 1.046709)" points="11,10 11,16.6 7.4,16.6 7.4,10.1 1,0 5.3,0 9.2,6.7 13.2,0 17.3,0  "></polygon>
                                        <path class="svg-bottom" d="M8.1,30.6h-4v7H8c2.6,0,4.3-1.4,4.3-3.5C12.3,31.8,10.6,30.6,8.1,30.6 M8,39.2H4.2v5.6H2.4V29h5.9  c3.5,0,5.9,1.9,5.9,5C14.1,37.5,11.3,39.2,8,39.2"></path>
                                        <path class="svg-bottom" d="M29.5,28.9l-1.7,0l-7.6,15.7l1.8,0.1l2-4.1l8.5,0.2l1.7,4.2l1.9,0.1L29.5,28.9z M24.8,39l3.6-8.1L32,39H24.8z"></path>
                                        <path class="svg-bottom" d="M52.1,30.6h-4.8v6.4h4.8c2.4,0,4-1.2,4-3.3C56.2,31.8,54.7,30.6,52.1,30.6L52.1,30.6z M56.3,44.8  l-4.5-6.1h-4.5v6.1h-1.8V29h6.7c3.4,0,5.7,1.9,5.7,4.7c0,2.6-1.8,4.2-4.3,4.6l4.8,6.5H56.3z"></path>
                                        <polygon class="svg-bottom" points="73.5,44.8 71.8,44.8 71.8,30.6 66.5,30.6 66.5,29 78.8,29 78.8,30.6 73.5,30.6 "></polygon>
                                        <polygon class="svg-bottom" points="99.7,29 101.4,29 101.4,44.8 100,44.8 89.9,31.8 89.9,44.8 88.2,44.8 88.2,29 89.8,29   99.7,41.7 "></polygon>
                                        <polygon class="svg-bottom" points="123.2,30.6 113.7,30.6 113.7,36 122.2,36 122.2,37.6 113.7,37.6 113.7,43.2 123.3,43.2   123.3,44.8 111.9,44.8 111.9,29 123.2,29 "></polygon>
                                        <path class="svg-bottom" d="M139.5,30.6h-4.8v6.4h4.8c2.4,0,4-1.2,4-3.3C143.5,31.8,142.1,30.6,139.5,30.6L139.5,30.6z   M143.7,44.8l-4.5-6.1h-4.5v6.1h-1.8V29h6.7c3.4,0,5.7,1.9,5.7,4.7c0,2.6-1.8,4.2-4.3,4.6l4.8,6.5H143.7z"></path>
                                        <path class="svg-bottom" d="M160.8,36c3.5,0.8,5.1,2.1,5.1,4.5c0,2.7-2.2,4.5-5.4,4.5c-2.5,0-4.5-0.8-6.4-2.5l1.1-1.3  c1.6,1.5,3.2,2.2,5.4,2.2c2.1,0,3.5-1.1,3.5-2.7c0-1.5-0.8-2.3-4.1-3c-3.6-0.8-5.3-2-5.3-4.6c0-2.5,2.2-4.3,5.1-4.3  c2.3,0,3.9,0.7,5.5,1.9l-1,1.4c-1.5-1.2-2.9-1.7-4.5-1.7c-2,0-3.3,1.1-3.3,2.6C156.5,34.5,157.3,35.3,160.8,36"></path>
                                    </svg>